<!--?xml version="1.0" standalone="no"?-->
              <svg id="sw-js-blob-svg" viewBox="0 0 100 100" xmlns="http://www.w3.org/2000/svg" version="1.1">
                    <defs> 
                        <linearGradient id="sw-gradient" x1="0" x2="1" y1="1" y2="0">
                            <stop id="stop1" stop-color="#017CEE" offset="0%"></stop>
                            <stop id="stop2" stop-color="#017CEE" offset="100%"></stop>
                        </linearGradient>
                    </defs>
                <path fill="#017CEE" d="M20.3,-31.2C26.3,-27.8,31,-22.1,33.2,-15.6C35.4,-9.2,35,-2.1,35.2,5.9C35.4,14,36.2,23,32.2,28.2C28.2,33.5,19.4,34.9,11.5,35.8C3.5,36.7,-3.8,37.1,-9.9,34.8C-16.1,32.6,-21.3,27.7,-27.2,22.6C-33.2,17.5,-39.9,12.1,-42.7,5C-45.4,-2.1,-44.3,-10.9,-39.9,-17.3C-35.6,-23.7,-27.9,-27.6,-20.7,-30.5C-13.5,-33.3,-6.8,-35.1,0.2,-35.4C7.2,-35.7,14.4,-34.6,20.3,-31.2Z" width="100%" height="100%" transform="translate(50 50)" style="transition: 0.3s;" stroke-width="0"></path>
              </svg>