<svg width="495" height="702" viewBox="0 0 495 702" fill="none" xmlns="http://www.w3.org/2000/svg">
<path d="M415.448 419.049C414.236 416.922 411.733 417.057 407.936 417.272C402.534 417.571 397.176 416.137 392.645 413.18C389.468 411.107 387.26 409.734 385.241 410.946C383.222 412.157 383.249 414.688 383.464 418.457C383.778 423.87 382.344 429.24 379.372 433.776C377.299 436.953 375.926 439.026 377.164 441.152C378.403 443.279 380.853 443.145 384.676 442.929C390.081 442.64 395.438 444.083 399.967 447.048C402.471 448.664 405.029 450.602 407.371 449.256C409.713 447.91 409.363 445.514 409.121 441.745C408.828 436.339 410.272 430.981 413.24 426.453C415.232 423.276 416.605 421.176 415.448 419.049Z" fill="#FFFF00"/>
<path d="M493.685 471.898C492.07 470.282 490.024 470.956 487.197 471.898C483.447 473.136 479.398 473.136 475.647 471.898C472.793 470.956 470.747 470.282 469.132 471.898C467.517 473.513 468.217 475.532 469.132 478.386C470.371 482.136 470.371 486.185 469.132 489.936C468.19 492.763 467.517 494.809 469.132 496.424C469.441 496.744 469.814 496.996 470.227 497.163C470.64 497.33 471.083 497.409 471.528 497.393C472.943 497.267 474.331 496.932 475.647 496.397C479.402 495.188 483.442 495.188 487.197 496.397C490.024 497.339 492.07 498.012 493.685 496.397C495.3 494.782 494.601 492.736 493.685 489.909C492.447 486.159 492.447 482.109 493.685 478.359C494.601 475.532 495.274 473.459 493.685 471.898Z" fill="#FFFF00"/>
<path d="M379.206 507.2L429.901 456.505L435.285 458.309L437.089 463.694L386.394 514.415C385.437 515.368 384.141 515.902 382.791 515.9C381.44 515.897 380.146 515.358 379.193 514.402C378.239 513.445 377.705 512.149 377.708 510.798C377.71 509.447 378.249 508.153 379.206 507.2Z" fill="black"/>
<path d="M379.206 507.2L429.901 456.505L435.285 458.309L437.089 463.694L386.394 514.415C385.437 515.368 384.141 515.902 382.791 515.9C381.44 515.897 380.146 515.358 379.193 514.402C378.239 513.445 377.705 512.149 377.708 510.798C377.71 509.447 378.249 508.153 379.206 507.2Z" fill="black"/>
<path d="M465.985 449.783C465.817 446.433 462.926 445.153 458.919 443.399C453.616 441.059 449.206 437.075 446.341 432.035C444.161 428.2 442.596 425.453 439.246 425.624C435.896 425.795 434.67 428.685 432.857 432.696C430.512 438.002 426.525 442.416 421.483 445.285C417.673 447.439 414.925 449.007 415.094 452.357C415.115 453.01 415.273 453.652 415.558 454.24C415.843 454.828 416.249 455.35 416.749 455.771C418.414 457.025 420.256 458.025 422.216 458.738C427.495 461.115 431.895 465.09 434.794 470.102C436.944 473.91 438.51 476.657 441.86 476.486C445.209 476.314 446.462 473.396 448.249 469.414C450.593 464.108 454.581 459.694 459.622 456.825C463.403 454.645 466.177 453.047 465.985 449.783Z" fill="#FFFF00"/>
<path d="M443.986 492.87C440.141 492.047 436.655 490.031 434.024 487.109C432.032 484.874 430.605 483.259 428.425 483.851C426.244 484.443 425.732 486.543 425.194 489.478C424.371 493.322 422.355 496.809 419.433 499.439C417.198 501.431 415.583 502.858 416.175 505.039C416.767 507.22 418.867 507.731 421.802 508.297C425.65 509.093 429.142 511.103 431.763 514.031C433.486 515.969 435.101 517.908 437.39 517.289C439.678 516.669 440.082 514.596 440.62 511.662C441.422 507.815 443.431 504.325 446.355 501.701C448.589 499.708 450.205 498.281 449.612 496.101C449.02 493.92 446.92 493.462 443.986 492.87Z" fill="#FFFF00"/>
<path d="M318.535 221.168C363.024 165.878 297.236 142.633 295.87 208.101L318.535 221.168Z" fill="#5DB0FE" stroke="black" stroke-width="5.66929" stroke-linecap="round"/>
<path d="M352.867 486.444C414.324 500.632 401.731 561.887 354.669 519.511C353.494 509.934 352.867 496.307 352.867 486.444Z" fill="#DBB69A" stroke="black" stroke-width="5.66929" stroke-linecap="round"/>
<path d="M324.256 618.315C329.824 621.669 359.64 682.673 346.385 689.752C333.131 696.832 292.268 646.745 291.765 641.598C291.172 635.531 305.851 632.324 312.133 626.414C318.437 622.871 319.582 615.5 324.256 618.315Z" fill="#DBB69A"/>
<path d="M324.256 618.315C329.824 621.669 359.64 682.673 346.385 689.752C333.131 696.832 292.268 646.745 291.765 641.598C291.172 635.531 305.851 632.324 312.133 626.414M324.256 618.315C319.582 615.5 318.437 622.871 312.133 626.414M324.256 618.315L312.133 626.414" stroke="black" stroke-width="5.66929"/>
<path d="M37.6947 432.863C78.1831 544.812 -7.548 585.98 70.4263 633.287C148.401 680.594 263.535 663.398 315.353 623.513C367.171 583.628 345.797 490.115 345.797 424.063C345.797 361.992 369.057 280.895 333.854 239.83C299.676 199.959 217.064 179.887 128.793 201.435C40.523 222.982 -2.79376 320.914 37.6947 432.863Z" fill="#5DB0FE" stroke="#050505" stroke-width="5.66929" stroke-linecap="round" stroke-linejoin="round"/>
<path d="M95.3633 210.274C80.9756 133.633 16.4156 175.952 68.6914 234.149C76.4505 228.075 87.934 223.527 95.3633 210.274Z" fill="#5DB0FE" stroke="black" stroke-width="5.66929" stroke-linecap="round"/>
<path d="M183.721 447.407C142.206 447.407 108.552 412.298 108.552 368.99C108.552 325.681 142.206 290.573 183.721 290.573C225.236 290.573 258.89 325.681 258.89 368.99C258.89 412.298 225.236 447.407 183.721 447.407Z" fill="white" stroke="black" stroke-width="5.66929" stroke-linecap="round" stroke-linejoin="round"/>
<path d="M153.14 403.223C144.037 403.223 136.657 395.525 136.657 386.029C136.657 376.532 144.037 368.834 153.14 368.834C162.243 368.834 169.622 376.532 169.622 386.029C169.622 395.525 162.243 403.223 153.14 403.223Z" fill="black"/>
<path d="M309.745 367.335C309.745 404.903 316.937 433.219 352.949 433.219C388.962 433.219 418.156 402.763 418.156 365.195C418.156 327.626 388.962 297.171 352.949 297.171C316.937 297.171 309.745 329.766 309.745 367.335Z" fill="white" stroke="black" stroke-width="5.66929" stroke-linecap="round" stroke-linejoin="round"/>
<path d="M147.602 383.621C145.185 383.621 143.225 381.577 143.225 379.055C143.225 376.533 145.185 374.489 147.602 374.489C150.02 374.489 151.98 376.533 151.98 379.055C151.98 381.577 150.02 383.621 147.602 383.621Z" fill="white"/>
<path d="M340.901 393.171C331.798 393.171 324.419 385.472 324.419 375.976C324.419 366.48 331.798 358.781 340.901 358.781C350.004 358.781 357.384 366.48 357.384 375.976C357.384 385.472 350.004 393.171 340.901 393.171Z" fill="black"/>
<path d="M335.364 373.568C332.946 373.568 330.987 371.524 330.987 369.002C330.987 366.48 332.946 364.436 335.364 364.436C337.781 364.436 339.741 366.48 339.741 369.002C339.741 371.524 337.781 373.568 335.364 373.568Z" fill="white"/>
<path d="M113.485 651.636C108.939 654.368 89.7418 692.647 100.564 698.417C111.386 704.187 139.538 665.333 139.948 661.138C140.816 652.268 122.109 646.451 113.485 651.636Z" fill="#DBB69A" stroke="black" stroke-width="5.66929"/>
<path d="M300.724 446.017C300.724 446.017 316.538 469.087 312.984 479.124C309.429 489.161 295.574 490.702 285.816 486.943C276.059 483.185 275.762 454.829 275.762 454.829L300.724 446.017Z" fill="white" stroke="#050505" stroke-width="5.66929"/>
<path d="M294.626 448.756C296.692 457.995 298.473 469.711 295.601 485.819" stroke="black" stroke-width="1.88976" stroke-linecap="round"/>
<path d="M259.566 445.157C273.006 462.446 284.638 443.912 297.441 443.601C310.244 443.29 313.151 450.689 320.106 439.868C327.061 429.047 310.841 414.357 290.582 414.357C270.323 414.357 246.127 427.868 259.566 445.157Z" fill="#DBB69A" stroke="black" stroke-width="5.66929" stroke-linecap="round" stroke-linejoin="round"/>
<path opacity="0.15" d="M299.994 415.465C315.461 419.042 325.936 430.796 320.106 439.867C313.533 450.094 310.564 444.056 299.451 443.624C320.089 440.309 309.005 419.713 299.994 415.465Z" fill="black"/>
<path d="M298.192 423.878C287.214 423.878 278.314 418.138 278.314 411.058C278.314 403.978 287.214 398.239 298.192 398.239C309.171 398.239 318.071 403.978 318.071 411.058C318.071 418.138 309.171 423.878 298.192 423.878Z" fill="black"/>
<path d="M50.7474 518.006C-11.3422 482.913 -15.1292 418.411 52.6873 481.795C52.2024 498.28 51.7175 509.622 50.7474 518.006Z" fill="#DBB69A" stroke="black" stroke-width="5.66929"/>
<path d="M193.318 216.672L155.684 211.415L127.044 200.207L105.321 186.51L96.1893 178.762L91.485 174.057L89.8247 169.215L89.2713 166.171L89.8247 161.467L94.2522 159.391L99.0948 158.976L102.554 160.36L106.705 163.542L117.22 173.089L141.433 187.617L194.287 197.994L243.128 184.711L282.976 158.976L287.68 159.53L291.416 162.158L292.523 165.756V169.491L291.416 172.535L288.233 175.303L278.133 184.711L255.165 200.207L225.141 211.415L193.318 216.672Z" fill="#FFFF00"/>
<path d="M191.104 3.59717L112.101 160.636L125.522 171.428L146.137 182.359L166.753 189.277L189.167 191.49L211.167 189.83L233.443 183.466L252.952 173.78L266.372 163.542L269.278 160.636L191.104 3.59717Z" fill="black"/>
<path d="M190.689 3.59717L175.951 29.1246H205.427L190.689 3.59717Z" fill="#FFFF00"/>
<path d="M163.513 144.722L180.389 142.27L187.936 126.977C188.532 125.771 189.76 125.008 191.104 125.008C192.449 125.008 193.677 125.771 194.272 126.977L201.82 142.27L218.696 144.722C220.027 144.915 221.132 145.847 221.547 147.126C221.963 148.405 221.616 149.809 220.653 150.747L208.442 162.651L211.325 179.459C211.552 180.784 211.008 182.124 209.92 182.914C208.832 183.704 207.39 183.809 206.199 183.183L191.104 175.248L176.01 183.183C175.493 183.455 174.928 183.589 174.366 183.589C173.634 183.589 172.905 183.361 172.29 182.914C171.202 182.123 170.657 180.784 170.884 179.459L173.767 162.651L161.556 150.747C160.593 149.809 160.246 148.405 160.662 147.126C161.077 145.848 162.182 144.916 163.513 144.722Z" fill="#FFFF00"/>
<path d="M163.513 71.715L180.389 69.2624L187.936 53.97C188.532 52.7642 189.76 52.0007 191.104 52.0007C192.449 52.0007 193.677 52.7642 194.272 53.97L201.82 69.2624L218.696 71.715C220.027 71.9081 221.132 72.8403 221.547 74.1191C221.963 75.3979 221.616 76.802 220.654 77.7402L208.442 89.6437L211.325 106.452C211.552 107.777 211.008 109.117 209.92 109.907C208.832 110.697 207.39 110.802 206.199 110.176L191.104 102.24L176.01 110.176C175.493 110.448 174.928 110.582 174.366 110.582C173.634 110.582 172.905 110.354 172.29 109.907C171.202 109.116 170.657 107.777 170.884 106.452L173.767 89.6437L161.556 77.7402C160.593 76.8015 160.246 75.3979 160.662 74.1191C161.077 72.8407 162.182 71.9086 163.513 71.715Z" fill="#FFFF00"/>
<path d="M87.1265 156.711C92.6416 151.198 101.35 150.782 107.351 155.459L172.532 25.0966C172.539 25.0829 172.545 25.0692 172.552 25.056L181.497 7.16647C184.615 0.931194 188.774 0 190.976 0C193.178 0 197.338 0.931194 200.455 7.166L209.399 25.0542C209.407 25.0688 209.414 25.0834 209.421 25.098L274.601 155.459C280.602 150.783 289.31 151.197 294.826 156.712C300.794 162.681 300.794 172.392 294.826 178.361C267.086 206.1 230.205 221.376 190.976 221.376C151.747 221.376 114.866 206.1 87.1265 178.361C81.1578 172.392 81.1578 162.681 87.1265 156.711ZM92.1221 173.365C118.527 199.769 153.634 214.311 190.976 214.311C228.318 214.311 263.425 199.769 289.83 173.365C293.044 170.151 293.044 164.921 289.83 161.707C286.616 158.493 281.387 158.494 278.173 161.707C277.465 162.416 276.748 163.113 276.026 163.801C276.015 163.811 276.004 163.823 275.992 163.834C252.546 186.15 221.844 197.773 190.844 197.773C169.862 197.773 148.742 192.447 129.649 181.51C127.956 180.54 127.369 178.382 128.339 176.689C129.309 174.996 131.468 174.409 133.161 175.38C176.998 200.49 232.148 194.217 269.215 160.485L267.551 157.156L259.273 152.804L244.179 160.74C243.661 161.011 243.097 161.145 242.535 161.145C241.803 161.145 241.074 160.918 240.458 160.47C239.37 159.68 238.826 158.341 239.053 157.015L241.936 140.207L229.725 128.304C228.762 127.365 228.415 125.961 228.831 124.683C229.246 123.404 230.351 122.472 231.682 122.278L248.558 119.826L248.721 119.496L208.287 38.6274C207.543 38.7498 206.765 38.6401 206.071 38.276L190.976 30.3403L175.882 38.276C175.364 38.5478 174.8 38.6815 174.238 38.6815C174.045 38.6815 173.853 38.6636 173.663 38.6325L133.231 119.496L133.394 119.826L150.271 122.279C151.601 122.472 152.707 123.404 153.122 124.683C153.538 125.962 153.191 127.366 152.228 128.304L140.017 140.208L142.9 157.016C143.127 158.341 142.582 159.681 141.494 160.471C140.879 160.918 140.15 161.146 139.417 161.146C138.856 161.146 138.291 161.011 137.774 160.74L122.679 152.804L114.401 157.156L112.736 160.486C115.583 163.078 118.553 165.534 121.614 167.812C123.179 168.978 123.503 171.19 122.338 172.756C121.173 174.32 118.96 174.644 117.395 173.48C113.437 170.534 109.624 167.313 106.019 163.885C105.976 163.846 105.935 163.807 105.894 163.767C105.182 163.088 104.474 162.403 103.779 161.708C100.565 158.494 95.3358 158.495 92.1221 161.708C88.9083 164.922 88.9083 170.151 92.1221 173.365ZM190.976 7.06521C190.215 7.06521 188.943 8.07365 187.817 10.3256L179.084 27.7903L178.93 28.6913L189.332 23.2224C190.362 22.6817 191.591 22.6817 192.62 23.2224L203.023 28.6913L202.868 27.7903L194.136 10.3256C193.009 8.07365 191.737 7.06521 190.976 7.06521ZM251.412 126.551L239.781 128.241L248.197 136.445C249.03 137.256 249.41 138.426 249.213 139.572L247.226 151.155L257.629 145.686C258.659 145.145 259.888 145.145 260.917 145.686L262.137 146.327L252.151 126.355C251.914 126.445 251.668 126.514 251.412 126.551Z" fill="black"/>
<path d="M131.905 161.659C138.695 162.839 144.616 156.957 143.48 150.158L143.117 147.989C141.854 140.427 132.9 137.042 126.949 141.876L119.051 148.292C118.43 148.796 117.906 149.409 117.503 150.1C115.183 154.086 117.547 159.164 122.092 159.954L131.905 161.659Z" fill="#FFFF00"/>
<path d="M146.072 137.337C151.733 131.509 148.45 121.72 140.42 120.485L139.566 120.354C135.195 119.681 130.902 121.959 129.009 125.955L117.359 150.536C116.789 151.74 117.918 153.048 119.192 152.659L134.164 148.089C135.528 147.672 136.765 146.917 137.759 145.894L146.072 137.337Z" fill="#FFFF00"/>
<path d="M235.518 134.071L239.077 137.631C240.776 139.33 243.111 140.236 245.511 140.127L248.816 139.977C253.446 139.767 256.326 134.86 254.252 130.715L248.743 119.705C248.653 119.524 248.395 119.524 248.305 119.705C248.269 119.777 248.199 119.827 248.119 119.838L234.411 121.757L231.367 122.172L231.274 122.199C228.762 122.907 227.792 125.952 229.43 127.984L231.09 129.782L235.518 134.071Z" fill="#FFFF00"/>
<path d="M249.354 158.008L258.839 153.197C258.88 153.176 258.918 153.148 258.951 153.115C259.086 152.98 259.294 152.948 259.464 153.036L260.787 153.719C262.912 154.817 265.205 152.566 264.148 150.421L262.499 147.077L259.133 140.424C257.634 137.462 254.24 135.985 251.051 136.909L241.697 139.618C241.477 139.681 241.391 139.948 241.532 140.128C241.587 140.198 241.611 140.288 241.597 140.376L239.669 153.165L239.091 156.291C239.016 156.696 238.99 157.109 239.014 157.521L239.047 158.084C239.092 158.842 239.386 159.564 239.883 160.138L240.022 160.299C240.589 160.953 241.411 161.328 242.277 161.328C242.656 161.328 243.032 161.256 243.385 161.115L244.235 160.775L249.354 158.008Z" fill="#FFFF00"/>
<path d="M267.48 157.178L265.543 153.58L264.436 151.366L260.934 153.802L267.48 157.178Z" fill="#FFFF00"/>
</svg>
